<svg xmlns="http://www.w3.org/2000/svg" id="Layer_1" data-name="Layer 1" viewBox="0 0 425.2 170.43"><defs><style>.cls-1{fill:#34686f;}.cls-1,.cls-2,.cls-3,.cls-4,.cls-5{fill-rule:evenodd;}.cls-2{fill:#a6ce39;}.cls-3{fill:#026333;}.cls-4{fill:#62bb46;}.cls-5{fill:#231f20;}</style></defs><path class="cls-1" d="M149.61,69.53h20.17c5.84,0,8.23,3.44,7.43,8.2-.53,4.76-4.78,8.47-12.47,8.47H146.69ZM117.76,57.1l-11.42,64.8h34l4-22,21.5,22h37.43l-22.57-23c13,0,24.42-5,26.81-19.31C209.33,69,203,57.1,175.09,57.1ZM269.32,98.63l-7.43-24.34L246.76,98.63ZM249.15,57.1h43.53l19.64,64.8h-36.1l-2.92-9.78h-35l-5.84,9.78H204.55Zm78.83,0-11.41,64.8h26l5.31-29.09,35.3,29.09h24.69l11.41-64.8h-26L388,86.46,352.14,57.1ZM59.89,87.52h44.33c-2.12,10.84-3.72,21.16-5.84,32-15.66,1.86-60.52,6.88-81.49-5-9.29-5-13.8-13.76-10.09-27,5.31-19.31,28.4-28,52-30.42,18.31-1.85,37.69,0,47.78,3.44-.53,3.7-1.33,7.41-1.86,11.11-13.54-1.59-22.83-2.38-33.18-.8-13,1.59-24.69,9.79-26.81,18.79-3.18,13.48,3.45,20.1,16.19,20.1h8c.79-3.71,1.32-7.41,2.12-11.11H58C58.83,94.93,59.36,91.22,59.89,87.52Z"></path><path class="cls-2" d="M352.93,82.67l.59-.27.09.35-.68-.08"></path><polygon class="cls-2" points="352.25 82.58 353.43 82.05 353.52 82.4 352.93 82.67 352.25 82.58"></polygon><path class="cls-2" d="M351.57,82.5l1.76-.8c0,.11.06.23.1.35l-1.19.53-.67-.08"></path><path class="cls-2" d="M350.9,82.41l2.33-1.06.1.35-1.76.8-.67-.09"></path><path class="cls-2" d="M350.24,82.31,353.13,81l.1.35-2.33,1.06-.66-.1"></path><path class="cls-2" d="M349.58,82.22,353,80.65l.1.35-2.89,1.31-.66-.09"></path><path class="cls-2" d="M348.93,82.12l4-1.81.1.34-3.45,1.57-.65-.1"></path><polygon class="cls-2" points="348.29 82.02 352.82 79.96 352.93 80.31 348.94 82.12 348.29 82.02"></polygon><path class="cls-2" d="M347.66,81.91l5.06-2.29.1.34L348.29,82l-.63-.1"></path><path class="cls-2" d="M347,81.8l5.58-2.53.11.35-5.06,2.29L347,81.8"></path><path class="cls-2" d="M346.42,81.69l6.07-2.76.12.34L347,81.8l-.61-.11"></path><path class="cls-2" d="M345.8,81.57l6.58-3,.11.34-6.07,2.76-.62-.12"></path><path class="cls-2" d="M345.2,81.45l7.07-3.2c0,.11.07.23.11.34l-6.58,3-.6-.12"></path><path class="cls-2" d="M344.6,81.33l7.55-3.42.12.34-7.07,3.2-.6-.12"></path><path class="cls-2" d="M344,81.2l8-3.63.12.34-7.55,3.42L344,81.2"></path><path class="cls-2" d="M343.43,81.07l8.48-3.84.12.34-8,3.63-.58-.13"></path><path class="cls-2" d="M342.86,80.94l8.93-4,.12.34-8.48,3.84-.57-.13"></path><path class="cls-2" d="M342.29,80.8l9.37-4.24.13.33-8.93,4-.57-.14"></path><path class="cls-2" d="M341.73,80.66l9.81-4.44.12.34-9.37,4.24-.56-.14"></path><path class="cls-2" d="M341.18,80.52l10.23-4.64c0,.12.09.23.13.34l-9.81,4.44-.55-.14"></path><path class="cls-2" d="M340.63,80.37l10.65-4.82.13.33-10.23,4.64-.55-.15"></path><path class="cls-2" d="M340.09,80.22l11.06-5c0,.11.08.22.13.33l-10.65,4.82-.54-.15"></path><path class="cls-2" d="M339.56,80.07,351,74.88l.14.34-11.06,5-.53-.15"></path><path class="cls-2" d="M339,79.91l11.84-5.36.13.33-11.45,5.19-.52-.16"></path><path class="cls-2" d="M338.52,79.75l12.22-5.53.14.33L339,79.91l-.52-.16"></path><path class="cls-2" d="M338,79.59l12.59-5.7.14.33-12.22,5.53-.51-.16"></path><path class="cls-2" d="M337.51,79.42l12.95-5.86.14.33L338,79.59l-.5-.17"></path><path class="cls-2" d="M337,79.26l13.3-6c0,.11.09.22.14.33l-12.95,5.86-.49-.16"></path><path class="cls-2" d="M336.53,79.08l13.64-6.17.15.32-13.3,6-.49-.18"></path><path class="cls-2" d="M336.05,78.91l14-6.33.15.33-13.64,6.17-.48-.17"></path><path class="cls-2" d="M335.58,78.73l14.29-6.48.15.33-14,6.33-.47-.18"></path><path class="cls-2" d="M335.12,78.54l14.6-6.61.15.32-14.29,6.48-.46-.19"></path><path class="cls-2" d="M334.66,78.36l14.91-6.76.15.33-14.6,6.61-.46-.18"></path><path class="cls-2" d="M334.21,78.17l15.21-6.89.15.32-14.91,6.76-.45-.19"></path><path class="cls-2" d="M333.77,78l15.49-7,.16.32-15.21,6.89-.44-.19"></path><path class="cls-2" d="M333.33,77.78l15.77-7.14.16.32-15.49,7-.44-.2"></path><path class="cls-2" d="M332.9,77.58l16-7.26.16.32-15.77,7.14-.43-.2"></path><path class="cls-2" d="M332.48,77.38,348.78,70l.16.32-16,7.26-.42-.2"></path><path class="cls-2" d="M332.06,77.17l16.55-7.49.17.32-16.3,7.38-.42-.21"></path><path class="cls-2" d="M331.66,77l16.79-7.61.16.32-16.55,7.49-.4-.2"></path><path class="cls-2" d="M331.25,76.75l17-7.71.17.32L331.66,77l-.41-.22"></path><path class="cls-2" d="M330.86,76.54l17.25-7.81.17.31-17,7.71-.39-.21"></path><path class="cls-2" d="M330.47,76.32l17.47-7.91.17.32-17.25,7.81-.39-.22"></path><path class="cls-2" d="M330.09,76.1l17.68-8,.17.31-17.47,7.91-.38-.22"></path><path class="cls-2" d="M329.72,75.88l17.87-8.1.18.32-17.68,8-.37-.22"></path><path class="cls-2" d="M329.35,75.65l18.07-8.18.17.31-17.87,8.1-.37-.23"></path><path class="cls-2" d="M329,75.42l18.25-8.26.18.31-18.07,8.18-.36-.23"></path><path class="cls-2" d="M328.64,75.19l18.42-8.35.18.32L329,75.42l-.35-.23"></path><path class="cls-2" d="M328.29,75l18.58-8.42c.07.11.12.21.19.31l-18.42,8.35-.35-.24"></path><path class="cls-2" d="M328,74.71l18.74-8.49.18.31L328.29,75l-.34-.24"></path><path class="cls-2" d="M327.61,74.47l18.89-8.56.19.31L328,74.71l-.34-.24"></path><path class="cls-2" d="M327.28,74.23l19-8.62.18.3-18.89,8.56-.33-.24"></path><path class="cls-2" d="M327,74l19.17-8.68.19.31-19,8.62A3.92,3.92,0,0,0,327,74"></path><path class="cls-2" d="M326.65,73.73,345.93,65l.2.31L327,74l-.31-.25"></path><path class="cls-2" d="M326.34,73.48l19.4-8.79.19.3-19.28,8.74-.31-.25"></path><path class="cls-2" d="M326,73.22l19.51-8.84c.06.1.13.2.19.31l-19.4,8.79-.3-.26"></path><path class="cls-2" d="M325.74,73l19.61-8.88.2.3L326,73.22l-.3-.26"></path><path class="cls-2" d="M325.45,72.7l19.7-8.93.2.31L325.74,73l-.29-.26"></path><path class="cls-2" d="M325.16,72.43l19.79-9,.2.3-19.7,8.93-.29-.27"></path><path class="cls-2" d="M324.88,72.17l19.87-9,.2.3-19.79,9-.28-.26"></path><path class="cls-2" d="M324.61,71.9l19.94-9,.2.3-19.87,9-.27-.27"></path><path class="cls-2" d="M324.34,71.63l20-9.06.21.3-19.94,9-.27-.27"></path><path class="cls-2" d="M324.08,71.35l20.05-9.08.21.3-20,9.06-.26-.28"></path><path class="cls-2" d="M323.82,71.07l20.1-9.1.21.3-20.05,9.08-.26-.28"></path><path class="cls-2" d="M323.57,70.8l20.14-9.13.21.3-20.1,9.1-.25-.27"></path><path class="cls-2" d="M323.33,70.51l20.17-9.13.21.29L323.57,70.8l-.24-.29"></path><path class="cls-2" d="M323.09,70.23l20.2-9.15.21.3-20.17,9.13-.24-.28"></path><path class="cls-2" d="M322.85,69.94l20.22-9.16.22.3-20.2,9.15-.24-.29"></path><path class="cls-2" d="M322.62,69.65l20.23-9.16.22.29-20.22,9.16c-.08-.09-.15-.19-.23-.29"></path><path class="cls-2" d="M322.4,69.36l20.23-9.16a3.15,3.15,0,0,1,.22.29l-20.23,9.16-.22-.29"></path><path class="cls-2" d="M322.18,69.07l20.23-9.17.22.3L322.4,69.36l-.22-.29"></path><path class="cls-2" d="M322,68.77l20.22-9.16.22.29-20.23,9.17-.21-.3m-4.65,2.1.06,0,0,.06Z"></path><path class="cls-2" d="M321.76,68.47,342,59.32l.23.29L322,68.77l-.21-.3m-4.9,2.22.3-.14.22.3-.06,0Z"></path><path class="cls-2" d="M321.55,68.17,341.74,59l.22.29-20.2,9.15-.21-.3m-5.13,2.33.55-.25.19.3-.3.14Z"></path><path class="cls-2" d="M321.35,67.87l20.16-9.13.23.29-20.19,9.14c-.06-.1-.13-.2-.2-.3M316,70.3l.81-.37.18.32-.55.25Z"></path><path class="cls-2" d="M321.16,67.56l20.12-9.11.23.29-20.16,9.13c-.06-.1-.12-.21-.19-.31m-5.6,2.54,1.07-.48c.05.11.11.21.16.31l-.81.37Z"></path><path class="cls-2" d="M321,67.25l20.08-9.09.23.29-20.12,9.11c-.06-.1-.13-.2-.19-.31m-5.83,2.64,1.33-.6c0,.11.1.22.16.33l-1.07.48Z"></path><path class="cls-2" d="M320.79,66.94l20-9.07.23.29L321,67.25l-.18-.31m-6.06,2.75,1.6-.73a2.52,2.52,0,0,0,.14.33l-1.33.6Z"></path><path class="cls-2" d="M320.61,66.63l20-9,.24.28-20,9.07-.18-.31m-6.28,2.85,1.86-.85c.05.12.09.23.14.33l-1.6.73Z"></path><path class="cls-2" d="M320.43,66.32l19.92-9,.23.29-20,9-.18-.31m-6.5,3,2.14-1,.12.33-1.86.85Z"></path><path class="cls-2" d="M320.26,66l19.85-9,.24.29-19.92,9-.17-.32m-6.73,3L316,68l.12.35-2.14,1Z"></path><path class="cls-2" d="M320.09,65.69l19.78-9,.24.28-19.85,9-.17-.31m-6.95,3.14,2.71-1.22c0,.12.07.23.1.34l-2.42,1.1Z"></path><path class="cls-2" d="M319.93,65.37l19.7-8.93.24.29-19.78,9c0-.11-.11-.22-.16-.32m-7.17,3.25,3-1.36c0,.12.07.23.1.35l-2.71,1.22Z"></path><path class="cls-2" d="M319.77,65l19.61-8.88.25.28-19.7,8.93c-.05-.11-.1-.22-.16-.33m-7.39,3.35,3.29-1.49c0,.12.05.24.08.36l-3,1.36Z"></path><path class="cls-2" d="M319.62,64.72l19.52-8.84.24.28L319.77,65l-.15-.32M312,68.17l3.6-1.63c0,.12,0,.24.07.36l-3.29,1.49Z"></path><path class="cls-2" d="M319.47,64.39l19.42-8.79.25.28-19.52,8.84-.15-.33M311.63,68l3.91-1.77.06.36L312,68.17Z"></path><path class="cls-2" d="M319.32,64.07l19.33-8.75.24.28-19.42,8.79-.15-.32m-8.06,3.65,4.23-1.91c0,.12,0,.24.05.37L311.63,68Z"></path><path class="cls-2" d="M319.18,63.74,338.4,55l.25.29-19.33,8.75c0-.11-.09-.22-.14-.33m-8.28,3.75,4.55-2.06c0,.13,0,.25,0,.38l-4.23,1.91Z"></path><path class="cls-2" d="M319.05,63.41l19.1-8.65.25.27-19.22,8.71-.13-.33m-8.51,3.85,4.89-2.21c0,.12,0,.25,0,.38l-4.55,2.06Z"></path><path class="cls-2" d="M318.91,63.07l19-8.59.25.28-19.1,8.65Zm-8.72,4,5.23-2.37c0,.13,0,.26,0,.39l-4.89,2.21Z"></path><path class="cls-2" d="M318.78,62.74l18.86-8.54.26.28-19,8.59c0-.11-.08-.22-.13-.33m-8.94,4.05,5.59-2.53c0,.13,0,.27,0,.4L310.19,67Z"></path><path class="cls-2" d="M318.66,62.4l18.73-8.48.25.28-18.86,8.54-.12-.34m-9.17,4.16,6-2.7c0,.13,0,.27,0,.4l-5.59,2.53Z"></path><path class="cls-2" d="M318.53,62.07l18.6-8.43.26.28L318.66,62.4c-.05-.11-.09-.22-.13-.33m-9.38,4.25,6.34-2.88c0,.14,0,.28,0,.42l-6,2.7Z"></path><path class="cls-2" d="M318.42,61.73l18.45-8.36.26.27-18.6,8.43c0-.12-.08-.23-.11-.34m-9.61,4.35L315.55,63l-.06.42-6.34,2.88Z"></path><path class="cls-2" d="M318.3,61.39l18.31-8.3.26.28-18.45,8.36-.12-.34m-9.82,4.45,7.15-3.25c0,.15-.05.29-.08.43l-6.74,3.06Z"></path><path class="cls-2" d="M318.19,61l18.16-8.22.26.27-18.31,8.3Zm-10,4.55,7.59-3.44c0,.15-.07.3-.11.44l-7.15,3.25Z"></path><path class="cls-2" d="M318.08,60.7l18-8.16.26.28L318.19,61c0-.11-.07-.23-.11-.34m-10.26,4.65,8.06-3.65c-.05.15-.1.3-.14.45l-7.59,3.44Z"></path><path class="cls-2" d="M318,60.35l17.85-8.08.26.27-18,8.16ZM307.5,65.1,316,61.23c-.06.15-.11.31-.16.47l-8.06,3.65Z"></path><path class="cls-2" d="M317.87,60l17.69-8,.27.28L318,60.35Zm-10.69,4.85,9.06-4.11c-.07.17-.14.33-.2.49L307.5,65.1Z"></path><path class="cls-2" d="M317.78,59.66l17.51-7.94.27.27-17.69,8-.09-.34M306.86,64.6l9.63-4.36c-.09.17-.17.34-.25.5l-9.06,4.11Z"></path><path class="cls-2" d="M317.68,59.31,335,51.45l.26.27-17.51,7.94c0-.12-.07-.24-.1-.35m-11.13,5,10.23-4.64c-.11.18-.2.36-.29.53l-9.63,4.36Z"></path><path class="cls-2" d="M317.59,59l17.17-7.77.27.27-17.35,7.86-.09-.36m-11.35,5.14,10.89-4.93-.35.55-10.23,4.64Z"></path><path class="cls-2" d="M305.94,63.84l28.55-12.93.27.27L317.59,59c0-.1,0-.2-.08-.31l-.38.52-10.89,4.93-.3-.25"></path><path class="cls-2" d="M305.64,63.58l28.57-12.94.28.27L305.94,63.84l-.3-.26"></path><path class="cls-2" d="M305.35,63.32l28.59-13,.27.27L305.64,63.58l-.29-.26"></path><path class="cls-2" d="M305.05,63.06l28.61-13,.28.27-28.59,13-.3-.26"></path><polygon class="cls-2" points="304.77 62.8 333.39 49.83 333.67 50.1 305.05 63.06 304.77 62.8"></polygon><polygon class="cls-2" points="304.48 62.53 333.11 49.56 333.39 49.83 304.77 62.8 304.48 62.53"></polygon><polygon class="cls-2" points="304.2 62.26 332.83 49.3 333.11 49.56 304.48 62.53 304.2 62.26"></polygon><path class="cls-2" d="M303.93,62l28.62-13,.28.27-28.63,13-.27-.26"></path><path class="cls-2" d="M303.66,61.73l28.61-13,.28.27L303.93,62l-.27-.27"></path><polygon class="cls-2" points="303.39 61.45 331.99 48.5 332.27 48.76 303.66 61.73 303.39 61.45"></polygon><path class="cls-2" d="M303.12,61.18l28.59-13,.28.27-28.6,13-.27-.27"></path><path class="cls-2" d="M302.87,60.9,331.42,48l.29.26-28.59,13c-.08-.09-.17-.18-.25-.28"></path><path class="cls-2" d="M302.61,60.63l28.52-12.92.29.26L302.87,60.9l-.26-.27"></path><polygon class="cls-2" points="302.36 60.35 330.85 47.44 331.13 47.71 302.61 60.63 302.36 60.35"></polygon><path class="cls-2" d="M302.11,60.07l28.45-12.89.29.26L302.36,60.35c-.08-.1-.17-.19-.25-.28"></path><path class="cls-2" d="M301.87,59.78l28.4-12.86.29.26L302.11,60.07l-.24-.29"></path><path class="cls-2" d="M301.63,59.5,330,46.66l.29.26-28.4,12.86-.24-.28"></path><path class="cls-2" d="M301.39,59.21l28.3-12.81.29.26L301.63,59.5l-.24-.29"></path><path class="cls-2" d="M301.16,58.92,329.4,46.13l.29.27-28.3,12.81-.23-.29"></path><path class="cls-2" d="M300.94,58.63,329.1,45.87l.3.26L301.16,58.92l-.22-.29"></path><path class="cls-2" d="M300.72,58.34l28.09-12.73.29.26L300.94,58.63l-.22-.29"></path><path class="cls-2" d="M300.5,58l28-12.69.3.26L300.72,58.34l-.22-.3"></path><path class="cls-2" d="M300.28,57.75,328.22,45.1l.29.25L300.5,58l-.22-.29"></path><path class="cls-2" d="M300.08,57.45l27.84-12.61.3.26L300.28,57.75l-.2-.3"></path><path class="cls-2" d="M299.87,57.15l27.75-12.57.3.26L300.08,57.45l-.21-.3"></path><path class="cls-2" d="M299.67,56.84l27.65-12.52.3.26L299.87,57.15l-.2-.31"></path><path class="cls-2" d="M299.48,56.54,327,44.06l.3.26L299.67,56.84l-.19-.3"></path><path class="cls-2" d="M299.29,56.23l27.43-12.42.3.25L299.48,56.54c-.07-.1-.13-.21-.19-.31"></path><polygon class="cls-2" points="299.1 55.92 326.42 43.55 326.72 43.81 299.29 56.23 299.1 55.92"></polygon><path class="cls-2" d="M298.92,55.61l27.2-12.32.3.26L299.1,55.92l-.18-.31"></path><path class="cls-2" d="M298.75,55.3,325.81,43l.31.25-27.2,12.32-.17-.31"></path><path class="cls-2" d="M298.57,55l26.94-12.2.3.26L298.75,55.3l-.18-.32"></path><path class="cls-2" d="M298.41,54.66,325.2,42.53l.31.25L298.57,55c-.05-.1-.11-.21-.16-.32"></path><path class="cls-2" d="M298.25,54.34,324.9,42.27l.3.26L298.41,54.66l-.16-.32"></path><path class="cls-2" d="M298.09,54l26.5-12,.31.25L298.25,54.34a3.18,3.18,0,0,1-.16-.32"></path><path class="cls-2" d="M297.94,53.7l26.35-11.94.3.26-26.5,12-.15-.32"></path><path class="cls-2" d="M297.79,53.37,324,41.51l.31.25L297.94,53.7l-.15-.33"></path><path class="cls-2" d="M297.65,53l26-11.79.31.26L297.79,53.37c0-.11-.09-.22-.14-.33"></path><path class="cls-2" d="M297.52,52.71,323.37,41l.3.25L297.65,53l-.13-.33"></path><path class="cls-2" d="M297.39,52.37l25.67-11.62.31.25L297.52,52.71a3.42,3.42,0,0,1-.13-.34"></path><path class="cls-2" d="M297.26,52l25.49-11.55.31.26L297.39,52.37l-.13-.33m-3.38,1.53.05,0,0,.06Z"></path><path class="cls-2" d="M297.14,51.7l25.3-11.46.31.25L297.26,52l-.12-.34m-3.67,1.66.36-.16c0,.11.06.23.1.35l-.05,0Z"></path><path class="cls-2" d="M297,51.36,322.13,40l.31.25L297.14,51.7a3.38,3.38,0,0,0-.11-.34m-3.94,1.78.67-.3c0,.12.05.24.07.36l-.36.16Z"></path><path class="cls-2" d="M296.92,51l24.9-11.28.31.26L297,51.36l-.11-.35m-4.21,1.91,1-.45c0,.12,0,.24.06.37l-.67.3Z"></path><path class="cls-2" d="M296.82,50.66l24.69-11.18.31.25L296.92,51c0-.11-.07-.23-.1-.35m-4.48,2,1.32-.6c0,.13,0,.25,0,.38l-1,.45Z"></path><path class="cls-2" d="M296.72,50.31,321.2,39.23l.31.25L296.82,50.66c0-.11-.07-.23-.1-.35M292,52.46l1.66-.75c0,.12,0,.25,0,.38l-1.32.6Z"></path><path class="cls-2" d="M296.63,50l24.26-11,.31.25L296.72,50.31l-.09-.35m-5,2.26,2-.91c0,.13,0,.26,0,.4l-1.66.75Z"></path><path class="cls-2" d="M296.55,49.61l24-10.89.31.26L296.63,50c0-.11-.05-.23-.08-.35M291.3,52l2.41-1.1c0,.14,0,.28,0,.42l-2,.91A4,4,0,0,1,291.3,52Z"></path><path class="cls-2" d="M296.47,49.25l23.8-10.78.31.25-24,10.89c0-.12-.06-.24-.08-.36M291,51.75l2.82-1.28c0,.14,0,.28-.07.42L291.3,52Z"></path><path class="cls-2" d="M296.4,48.89,320,38.22l.31.25-23.8,10.78c0-.12-.05-.24-.07-.36m-5.77,2.61L293.89,50c0,.14-.08.29-.11.44L291,51.75Z"></path><path class="cls-2" d="M296.33,48.53,319.65,38l.31.26L296.4,48.89c0-.12,0-.24-.07-.36m-6,2.73,3.74-1.7a3.68,3.68,0,0,0-.15.47l-3.26,1.47Z"></path><path class="cls-2" d="M296.27,48.16l23.07-10.45.31.25L296.33,48.53l-.06-.37M290,51l4.26-1.93c-.07.16-.14.32-.2.48l-3.74,1.7Z"></path><path class="cls-2" d="M296.22,47.79,319,37.46l.31.25L296.27,48.16c0-.12,0-.25,0-.37m-6.57,3,4.86-2.2-.27.52L290,51Z"></path><path class="cls-2" d="M296.17,47.42l22.55-10.21.31.25L296.22,47.79c0-.12,0-.25-.05-.37m-6.83,3.09,5.53-2.5a6.49,6.49,0,0,0-.36.55l-4.86,2.2Z"></path><path class="cls-2" d="M296.13,47,318.41,37l.31.26L296.17,47.42c0-.13,0-.25,0-.38M289,50.26l6.33-2.86a7.16,7.16,0,0,0-.48.61l-5.53,2.5Z"></path><path class="cls-2" d="M296.1,46.67l22-10,.31.25L296.13,47l0-.37M288.71,50l7.35-3.33a6.9,6.9,0,0,0-.71.72L289,50.26Z"></path><polygon class="cls-2" points="288.4 49.76 317.79 36.45 318.1 36.7 296.1 46.67 296.1 46.65 296.06 46.68 288.71 50.01 288.4 49.76"></polygon><polygon class="cls-2" points="288.09 49.51 317.48 36.2 317.79 36.45 288.4 49.76 288.09 49.51"></polygon><polygon class="cls-2" points="287.78 49.25 317.17 35.94 317.48 36.2 288.09 49.51 287.78 49.25"></polygon><polygon class="cls-2" points="287.47 49 316.86 35.69 317.17 35.94 287.78 49.25 287.47 49"></polygon><polygon class="cls-2" points="287.17 48.74 316.55 35.44 316.86 35.69 287.47 49 287.17 48.74"></polygon><polygon class="cls-2" points="286.86 48.49 316.24 35.18 316.55 35.44 287.17 48.74 286.86 48.49"></polygon><polygon class="cls-2" points="286.55 48.24 315.94 34.93 316.24 35.18 286.86 48.49 286.55 48.24"></polygon><polygon class="cls-2" points="286.24 47.98 315.63 34.67 315.94 34.93 286.55 48.24 286.24 47.98"></polygon><polygon class="cls-2" points="285.93 47.73 315.32 34.42 315.46 34.53 315.63 34.67 286.24 47.98 285.93 47.73"></polygon><polygon class="cls-2" points="285.62 47.48 315.02 34.16 315.32 34.42 285.93 47.73 285.62 47.48"></polygon><path class="cls-2" d="M285.31,47.23,314.72,33.9l.3.26-29.4,13.32Z"></path><path class="cls-2" d="M285,47l29.43-13.33.29.26L285.31,47.23Z"></path><path class="cls-2" d="M284.68,46.72l29.46-13.34.29.26L285,47Z"></path><path class="cls-2" d="M284.36,46.47l29.49-13.35.29.26L284.68,46.72Z"></path><path class="cls-2" d="M284,46.23l29.53-13.38.28.27L284.36,46.47Z"></path><path class="cls-2" d="M283.72,46l29.57-13.39.28.26L284,46.23Z"></path><path class="cls-2" d="M283.39,45.74,313,32.32c.09.09.17.18.27.27L283.72,46Z"></path><path class="cls-2" d="M283.06,45.49l29.68-13.44.28.27L283.39,45.74Z"></path><path class="cls-2" d="M282.72,45.25l29.76-13.48.26.28L283.06,45.49l-.34-.24"></path><path class="cls-2" d="M282.38,45,312.22,31.5l.26.27L282.72,45.25l-.34-.24"></path><path class="cls-2" d="M282,44.78,312,31.22l.26.28L282.38,45l-.35-.23"></path><path class="cls-2" d="M281.67,44.55l30-13.61.25.28L282,44.78l-.36-.23"></path><path class="cls-2" d="M281.31,44.32l30.16-13.66.24.28-30,13.61-.36-.23"></path><path class="cls-2" d="M280.93,44.1l30.3-13.73.24.29L281.31,44.32l-.38-.22"></path><path class="cls-2" d="M280.54,43.88,311,30.09l.24.28L280.93,44.1l-.39-.22"></path><path class="cls-2" d="M280.15,43.67,310.76,29.8c.08.09.15.19.23.29L280.54,43.88l-.31-.17Z"></path><path class="cls-2" d="M279.74,43.46l30.8-14,.22.3L280.15,43.67Z"></path><path class="cls-2" d="M279.33,43.25l31-14,.22.29-30.8,14Z"></path><path class="cls-2" d="M278.92,43l31.19-14.13.21.3-31,14Z"></path><path class="cls-2" d="M278.5,42.84l31.41-14.23.2.3L278.92,43Z"></path><path class="cls-2" d="M278.08,42.64l31.64-14.33c.06.1.12.2.19.3L278.5,42.84Z"></path><path class="cls-2" d="M277.65,42.44,309.53,28l.19.31L278.08,42.64Z"></path><path class="cls-2" d="M277.22,42.24l32.13-14.55c.06.1.11.2.18.31L277.65,42.44l-.43-.2"></path><path class="cls-2" d="M276.78,42l32.39-14.67.18.32L277.22,42.24l-.44-.2"></path><path class="cls-2" d="M276.34,41.85,309,27.05l.16.32L276.78,42Z"></path><path class="cls-2" d="M275.89,41.66l33-14.93.15.32-32.67,14.8-.45-.19"></path><path class="cls-2" d="M275.44,41.47,308.71,26.4l.15.33-33,14.93-.45-.19"></path><path class="cls-2" d="M275,41.29l33.6-15.22c0,.11.08.22.13.33L275.44,41.47l-.46-.18"></path><path class="cls-2" d="M274.51,41.1l33.95-15.37.12.34L275,41.29l-.47-.19"></path><path class="cls-2" d="M274,40.93l34.31-15.54c0,.11.07.22.11.34L274.51,41.1l-.47-.17"></path><path class="cls-2" d="M273.56,40.75,308.25,25c0,.11.06.23.1.35L274,40.93l-.48-.18"></path><path class="cls-2" d="M320.37,19.15l.29-.13c0,.12,0,.25-.05.37l-.24-.24M273.08,40.58l35.09-15.9c0,.12.05.24.08.36L273.56,40.75Z"></path><path class="cls-2" d="M320.08,18.89l.62-.28c0,.14,0,.27,0,.41l-.29.13-.29-.26m-47.5,21.52L308.1,24.32c0,.12,0,.24.07.36l-35.09,15.9Z"></path><path class="cls-2" d="M319.77,18.64l.93-.42v.39l-.62.28-.31-.25m-47.69,21.6,36-16.29c0,.12,0,.24.05.37L272.58,40.41Z"></path><path class="cls-2" d="M319.44,18.4l1.24-.57c0,.13,0,.26,0,.39l-.93.42a3.43,3.43,0,0,0-.33-.24M271.58,40.08,308,23.57a2.53,2.53,0,0,0,0,.38l-36,16.29Z"></path><path class="cls-2" d="M319.08,18.17l1.55-.71c0,.12,0,.25.05.37l-1.24.57-.36-.23m-48,21.75L308,23.18c0,.13,0,.26,0,.39L271.58,40.08Z"></path><path class="cls-2" d="M318.68,18l1.88-.85c0,.12.05.24.07.36l-1.55.71-.4-.22M270.54,39.76l37.48-17c0,.13,0,.26,0,.4L271.06,39.92Z"></path><path class="cls-2" d="M318.25,17.75l2.22-1a2,2,0,0,1,.09.35l-1.88.85-.43-.2M270,39.61l38.07-17.24c0,.13,0,.27-.05.41l-37.48,17Z"></path><path class="cls-2" d="M317.78,17.57l2.59-1.17c0,.12.07.23.1.35l-2.22,1-.47-.18M269.46,39.46l38.68-17.52c0,.14-.05.28-.07.43L270,39.61Z"></path><path class="cls-2" d="M317.27,17.41l3-1.34c.05.11.09.22.13.33l-2.59,1.17-.51-.16M268.91,39.32l39.35-17.83-.12.45L269.46,39.46Z"></path><path class="cls-2" d="M316.69,17.28l3.41-1.54.14.33-3,1.34-.58-.13m-48.35,21.9L308.44,21a3.8,3.8,0,0,0-.18.47L268.91,39.32Z"></path><path class="cls-2" d="M316.05,17.18l3.89-1.76.16.32-3.41,1.54c-.21,0-.43-.08-.64-.1M267.77,39.05l40.9-18.53a4.52,4.52,0,0,0-.23.5l-40.1,18.16Z"></path><path class="cls-2" d="M315.29,17.13l4.47-2,.18.32-3.89,1.76a6.47,6.47,0,0,0-.76-.05M267.18,38.92,309,20a6.26,6.26,0,0,0-.34.55l-40.9,18.53Z"></path><path class="cls-2" d="M314.36,17.16l5.21-2.36c.07.1.13.2.19.3l-4.47,2a7.23,7.23,0,0,0-.93,0M266.58,38.8l42.94-19.45A6.23,6.23,0,0,0,309,20l-41.83,19Z"></path><path class="cls-2" d="M313,17.39l6.38-2.89.21.3-5.21,2.36a8,8,0,0,0-1.38.23M266,38.68l44.51-20.16a6.36,6.36,0,0,0-1,.83L266.58,38.8ZM224,57.67l.12-.05-.19.3C224,57.84,224,57.76,224,57.67Z"></path><path class="cls-2" d="M265.35,38.57,319.14,14.2l.22.3L313,17.39a7.57,7.57,0,0,0-2.5,1.13L266,38.68l-.62-.11M224.16,57.22l.38-.16-.38.56-.12.05C224.08,57.53,224.12,57.37,224.16,57.22Z"></path><path class="cls-2" d="M264.71,38.47l54.2-24.55.23.28L265.35,38.57l-.64-.1m-40.42,18.3.64-.29c-.15.21-.28.41-.39.58l-.38.16C224.21,57.07,224.25,56.92,224.29,56.77Z"></path><path class="cls-2" d="M264.05,38.37l54.61-24.74.25.29-54.2,24.55-.66-.1M224.46,56.31l.89-.41-.42.58-.64.29C224.35,56.62,224.4,56.46,224.46,56.31Z"></path><path class="cls-2" d="M263.38,38.28l55-24.92.25.27L264.05,38.37l-.67-.09M224.62,55.84l1.18-.53-.45.59-.89.41C224.51,56.15,224.56,56,224.62,55.84Z"></path><path class="cls-2" d="M262.69,38.2l55.44-25.11.28.27-55,24.92-.69-.08M224.82,55.36l1.44-.66c-.16.21-.32.41-.46.61l-1.18.53C224.68,55.68,224.75,55.52,224.82,55.36Z"></path><path class="cls-2" d="M262,38.13l55.87-25.31.28.27L262.69,38.2l-.71-.07M225,54.87l1.73-.78c-.17.21-.34.41-.49.61l-1.44.66A4.19,4.19,0,0,1,225,54.87Z"></path><path class="cls-2" d="M261.25,38.07l56.31-25.51.29.26L262,38.13l-.73-.06m-36,16.3,2-.91-.51.63-1.73.78Z"></path><path class="cls-2" d="M260.49,38l56.76-25.71.31.25L261.25,38.07l-.76,0m-35,15.85,2.31-1c-.19.21-.37.43-.54.63l-2,.91Z"></path><path class="cls-2" d="M259.71,38l57.21-25.92.33.25L260.49,38l-.78,0M225.77,53.35l2.59-1.17c-.19.22-.38.43-.56.65l-2.31,1Z"></path><path class="cls-2" d="M258.91,38l57.68-26.13.33.24L259.71,38l-.8,0M226.05,52.83,229,51.51l-.6.67-2.59,1.17C225.86,53.18,226,53,226.05,52.83Z"></path><path class="cls-2" d="M258.07,37.93l58.18-26.35.34.24L258.91,38l-.84,0m-31.7,14.36,3.23-1.46-.64.68-2.91,1.32C226.15,52.65,226.26,52.47,226.37,52.29Z"></path><path class="cls-2" d="M257.2,37.94l58.69-26.59.36.23L258.07,37.93h-.87M226.71,51.75l3.57-1.62-.68.7-3.23,1.46C226.48,52.11,226.59,51.93,226.71,51.75Z"></path><path class="cls-2" d="M256.29,38l59.23-26.83.37.23L257.2,37.94h-.91M227.08,51.18,231,49.41q-.37.36-.72.72l-3.57,1.62Z"></path><path class="cls-2" d="M255.34,38l59.8-27.09.38.22L256.29,38l-1,0M227.47,50.61l4.31-2-.78.75-3.92,1.77Z"></path><path class="cls-2" d="M254.34,38.05l60.4-27.36.4.21L255.34,38l-1,.06M227.91,50l4.72-2.14-.85.78-4.31,2Z"></path><path class="cls-2" d="M253.27,38.14l61.07-27.66.4.21-60.4,27.36-.42,0-.65.06m-24.9,11.28,5.21-2.36-1,.82L227.91,50Z"></path><path class="cls-2" d="M252.1,38.28l61.82-28,.42.2L253.27,38.14c-.39,0-.78.08-1.17.14M228.86,48.8l5.78-2.61c-.37.29-.72.58-1.06.87l-5.21,2.36Z"></path><path class="cls-2" d="M250.75,38.5l62.73-28.42.44.2-61.82,28c-.45.06-.9.13-1.35.22m-21.34,9.66,6.46-2.92c-.42.31-.83.63-1.23.95l-5.78,2.61C229,48.59,229.23,48.38,229.41,48.16Z"></path><path class="cls-2" d="M249.12,38.84,313,9.89l.44.19L250.75,38.5c-.55.1-1.09.21-1.63.34M230,47.51l7.4-3.35c-.52.35-1,.71-1.51,1.08l-6.46,2.92Z"></path><path class="cls-2" d="M246.86,39.47,312.57,9.71l.47.18-63.92,29c-.77.19-1.52.4-2.26.63m-16.25,7.36,8.93-4c-.74.44-1.46.9-2.16,1.37L230,47.51Z"></path><path class="cls-2" d="M231.29,46.13,312.1,9.53l.47.18L246.86,39.47a35.9,35.9,0,0,0-7.32,3.32l-8.93,4,.68-.7"></path><path class="cls-2" d="M232,45.41l79.59-36,.49.17-80.81,36.6.73-.72"></path><path class="cls-2" d="M232.81,44.66,311.1,9.19l.51.17L232,45.41l.79-.75"></path><path class="cls-2" d="M233.67,43.87,310.58,9l.52.15L232.81,44.66c.28-.27.57-.53.86-.79"></path><path class="cls-2" d="M234.62,43.05,310,8.89l.54.15L233.67,43.87l1-.82"></path><path class="cls-2" d="M235.65,42.19,309.48,8.75l.56.14L234.62,43.05l1-.86"></path><path class="cls-2" d="M236.79,41.28,308.9,8.62l.58.13L235.65,42.19l1.14-.91"></path><path class="cls-2" d="M238.05,40.32,308.3,8.5l.6.12L236.79,41.28l1.26-1"></path><path class="cls-2" d="M239.46,39.29l68.22-30.9.62.11L238.05,40.32c.46-.35.93-.69,1.41-1"></path><path class="cls-2" d="M241.07,38.16l53.7-24.32,2.68-.87-.87,0,5.3-2.4.59,0-.47,0,5-2.27.65.1-68.22,30.9,1.61-1.13"></path><path class="cls-2" d="M301.26,10.51l5.09-2.31.68.09-5,2.27-.74-.05m-5.7,2.58,5.37-2.44.95,0-5.3,2.4ZM242.92,36.93l48.56-22c1.2-.41,2.3-.78,3.29-1.1l-53.7,24.32Z"></path><path class="cls-2" d="M300.5,10.46l5.14-2.33.71.07-5.09,2.31-.76,0m-6,2.71,5.43-2.46,1-.06-5.37,2.44ZM245.09,35.56l42.75-19.37,3.64-1.25-48.56,22C243.63,36.47,244.35,36,245.09,35.56Z"></path><path class="cls-2" d="M299.73,10.41l5.17-2.34c.25,0,.5,0,.74.06l-5.14,2.33-.77-.05m-6.31,2.86,5.48-2.48,1-.08-5.43,2.46ZM247.75,34,283.7,17.67c1.45-.53,2.83-1,4.14-1.48L245.09,35.56C246,35,246.85,34.48,247.75,34Z"></path><path class="cls-2" d="M298.94,10.37,304.12,8l.78,0-5.17,2.34-.79,0m-6.64,3,5.5-2.49,1.1-.1-5.48,2.48ZM251.29,32l27.39-12.41,5-1.88L247.75,34C248.91,33.28,250.09,32.61,251.29,32Z"></path><path class="cls-2" d="M298.15,10.34,303.3,8l.82,0-5.18,2.34-.79,0m-7,3.17L296.61,11l1.19-.15-5.5,2.49ZM257.09,28.94l14.31-6.48c2.5-1,4.94-2,7.28-2.91L251.29,32C253.19,30.92,255.13,29.91,257.09,28.94Z"></path><path class="cls-2" d="M271.4,22.46l-14.31,6.48c4.77-2.37,9.64-4.54,14.31-6.48m25.94-12.15L302.43,8h.87l-5.15,2.33ZM290,13.66l5.37-2.43c.44-.07.87-.14,1.29-.19l-5.46,2.47Z"></path><path class="cls-2" d="M296.53,10.29l5-2.25.94,0-5.09,2.3-.81,0m-7.81,3.54,5.17-2.35c.48-.09,1-.18,1.43-.25L290,13.66Z"></path><path class="cls-2" d="M295.7,10.27l4.78-2.16,1-.07-5,2.25-.83,0M287.44,14l4.79-2.17,1.66-.36-5.17,2.35Z"></path><path class="cls-2" d="M294.85,10.26l4.51-2,1.12-.11-4.78,2.16h-.85m-8.75,4,4.07-1.84c.7-.2,1.38-.38,2.06-.54L287.44,14Z"></path><path class="cls-2" d="M294,10.25l4.1-1.85q.63-.11,1.26-.18l-4.51,2H294m-9.3,4.22,2.08-1q1.73-.66,3.39-1.14l-4.07,1.84Z"></path><path class="cls-2" d="M286.78,13.52l-2.08,1-.27,0c.79-.37,1.57-.7,2.35-1m6.35-3.26,3.5-1.59,1.47-.27L294,10.25Z"></path><path class="cls-2" d="M292.24,10.27l2.51-1.14c.63-.18,1.25-.33,1.88-.46l-3.5,1.59h-.89"></path><path class="cls-2" d="M291.33,10.28h0a31.09,31.09,0,0,1,3.41-1.15l-2.51,1.14h-.91"></path><polygon class="cls-3" points="291.34 10.28 291.33 10.29 291.33 10.29 291.34 10.28"></polygon><path class="cls-4" d="M263.26,38.21a7.57,7.57,0,0,0,1.34.18l-1.34-.18"></path><path class="cls-4" d="M264.6,38.39a7.57,7.57,0,0,1-1.34-.18l-1.41-.15a8.65,8.65,0,0,0,3.91.59l.25,0c-.47-.09-.93-.16-1.41-.24"></path><path class="cls-4" d="M266,38.63l-.25,0a8.65,8.65,0,0,1-3.91-.59L261,38a8.92,8.92,0,0,0,4.74.92,7.09,7.09,0,0,0,1-.14l-.8-.15"></path><path class="cls-4" d="M266.81,38.78a7.09,7.09,0,0,1-1,.14A8.92,8.92,0,0,1,261,38l-.65,0a9.31,9.31,0,0,0,5.41,1.24,9.8,9.8,0,0,0,1.65-.28l-.64-.14"></path><path class="cls-4" d="M267.45,38.92a9.8,9.8,0,0,1-1.65.28A9.31,9.31,0,0,1,260.39,38l-.56,0a9.55,9.55,0,0,0,6,1.54A9.68,9.68,0,0,0,268,39l-.55-.12"></path><path class="cls-4" d="M268,39a9.68,9.68,0,0,1-2.18.43,9.55,9.55,0,0,1-6-1.54l-.51,0a9.87,9.87,0,0,0,9.18,1.25L268,39"></path><path class="cls-4" d="M268.5,39.16a9.87,9.87,0,0,1-9.18-1.25l-.47,0A10.1,10.1,0,0,0,269,39.27l-.45-.11"></path><path class="cls-4" d="M269,39.27a10.1,10.1,0,0,1-10.1-1.38h-.44a10.4,10.4,0,0,0,11,1.49Z"></path><path class="cls-4" d="M269.38,39.38a10.4,10.4,0,0,1-11-1.49H258a10.69,10.69,0,0,0,11.81,1.61Z"></path><path class="cls-4" d="M269.79,39.49A10.69,10.69,0,0,1,258,37.88h-.4a10.89,10.89,0,0,0,8.35,2.94,11,11,0,0,0,4.25-1.22Z"></path><path class="cls-4" d="M270.18,39.6a11,11,0,0,1-4.25,1.22,10.89,10.89,0,0,1-8.35-2.94h-.39A11.16,11.16,0,0,0,266,41.09a11.27,11.27,0,0,0,4.6-1.38Z"></path><path class="cls-4" d="M270.55,39.71a11.27,11.27,0,0,1-4.6,1.38,11.16,11.16,0,0,1-8.76-3.21h-.38a11.5,11.5,0,0,0,8.48,3.51,22.1,22.1,0,0,1,2.59-.35,11.23,11.23,0,0,0,3-1.24Z"></path><path class="cls-4" d="M265.29,41.4a11.5,11.5,0,0,1-8.48-3.51h-.36a11.74,11.74,0,0,0,7.72,3.74c.37-.09.74-.17,1.12-.24m5.62-1.59a11.23,11.23,0,0,1-3,1.24L269,41a12,12,0,0,0,2.25-1.08Z"></path><path class="cls-4" d="M264.17,41.64a11.74,11.74,0,0,1-7.72-3.74h-.36a12.05,12.05,0,0,0,7.33,3.92l.75-.19m7.09-1.72A12,12,0,0,1,269,41h.76a12.46,12.46,0,0,0,1.84-1Z"></path><path class="cls-4" d="M263.42,41.83a12.05,12.05,0,0,1-7.33-3.92h-.35A12.27,12.27,0,0,0,262.8,42l.62-.17M271.61,40a12.46,12.46,0,0,1-1.84,1h.62a11.25,11.25,0,0,0,1.55-.88Z"></path><path class="cls-4" d="M262.8,42a12.27,12.27,0,0,1-7.06-4.08l-.35,0a12.6,12.6,0,0,0,6.87,4.23l.54-.17m9.14-1.87a11.25,11.25,0,0,1-1.55.88l.55,0a14.54,14.54,0,0,0,1.32-.81Z"></path><path class="cls-4" d="M262.26,42.17a12.56,12.56,0,0,1-6.87-4.23l-.33,0a12.9,12.9,0,0,0,6.72,4.37l.48-.16m10-1.93a14.54,14.54,0,0,1-1.32.81l.5,0a11.8,11.8,0,0,0,1.15-.74Z"></path><path class="cls-4" d="M261.78,42.33A12.9,12.9,0,0,1,255.06,38h-.33a13.1,13.1,0,0,0,6.6,4.52l.45-.16m10.81-2a11.8,11.8,0,0,1-1.15.74l.45.05a11.88,11.88,0,0,0,1-.68Z"></path><path class="cls-4" d="M261.33,42.49a13.1,13.1,0,0,1-6.6-4.52l-.33,0a13.4,13.4,0,0,0,6.51,4.64l.42-.15m11.57-2a11.88,11.88,0,0,1-1,.68l.44,0c.3-.19.59-.4.88-.62Z"></path><path class="cls-4" d="M260.91,42.64A13.4,13.4,0,0,1,254.4,38l-.32,0a13.62,13.62,0,0,0,6.43,4.77l.4-.15m12.3-2.08c-.29.22-.58.43-.88.62l.4.06q.4-.27.78-.57Z"></path><path class="cls-4" d="M260.51,42.79A13.62,13.62,0,0,1,254.08,38H254l-.21,0a13.9,13.9,0,0,0,6.37,4.89l.38-.15m13-2.12q-.37.3-.78.57l.4.06c.23-.17.46-.34.68-.52Z"></path><path class="cls-4" d="M260.13,42.94a13.9,13.9,0,0,1-6.37-4.89l-.32,0a14.29,14.29,0,0,0,6.32,5l.37-.15m13.68-2.16c-.22.18-.45.35-.68.52l.37.06c.21-.15.41-.31.61-.47Z"></path><path class="cls-4" d="M259.76,43.09a14.29,14.29,0,0,1-6.32-5l-.31,0a14.53,14.53,0,0,0,6.28,5.14Zm14.35-2.2c-.2.16-.4.32-.61.47l.37.07c.18-.14.36-.28.53-.43Z"></path><path class="cls-4" d="M259.41,43.24a14.53,14.53,0,0,1-6.28-5.14l-.3,0a14.79,14.79,0,0,0,6.23,5.25l.35-.15m15-2.24c-.17.15-.35.29-.53.43l.35.07c.16-.12.31-.26.47-.39Z"></path><path class="cls-4" d="M259.06,43.39a14.79,14.79,0,0,1-6.23-5.25l-.31,0a15,15,0,0,0,6.21,5.35l.33-.14m15.63-2.28c-.16.13-.31.27-.47.39l.34.07.42-.35Z"></path><path class="cls-4" d="M258.73,43.53a15,15,0,0,1-6.21-5.35l-.3,0a15.39,15.39,0,0,0,6.18,5.47l.33-.15M275,41.22l-.42.35.34.08.36-.31Z"></path><path class="cls-4" d="M258.4,43.68a15.33,15.33,0,0,1-6.18-5.47l-.29,0a15.62,15.62,0,0,0,6.15,5.56l.32-.14m16.86-2.34-.36.31.32.08.32-.28Z"></path><path class="cls-4" d="M258.08,43.82a15.62,15.62,0,0,1-6.15-5.56l-.3,0A15.87,15.87,0,0,0,257.77,44l.31-.15m17.46-2.37-.32.28.32.08.28-.24Z"></path><path class="cls-4" d="M257.77,44a15.8,15.8,0,0,1-6.14-5.67l-.29.05a16.23,16.23,0,0,0,6.12,5.77Zm18.05-2.4-.28.24.32.09.23-.22Z"></path><path class="cls-4" d="M257.46,44.12a16.23,16.23,0,0,1-6.12-5.77l-.29,0a16.44,16.44,0,0,0,6.11,5.86Zm18.63-2.44-.23.22.31.09.2-.19Z"></path><path class="cls-4" d="M257.16,44.26a16.44,16.44,0,0,1-6.11-5.86l-.29.05a16.76,16.76,0,0,0,6.1,6Zm19.21-2.46-.2.19.3.09.17-.16Z"></path><path class="cls-4" d="M256.86,44.41a16.83,16.83,0,0,1-6.1-6l-.28,0a16.9,16.9,0,0,0,6.09,6Zm19.78-2.49-.17.16.3.09.14-.13Z"></path><path class="cls-4" d="M256.57,44.55a16.9,16.9,0,0,1-6.09-6l-.29.06a17.31,17.31,0,0,0,6.09,6.14ZM276.91,42l-.14.13.29.09.11-.1Z"></path><path class="cls-4" d="M256.28,44.7a17.31,17.31,0,0,1-6.09-6.14l-.28.06A17.64,17.64,0,0,0,256,44.85Zm20.89-2.54-.11.1.3.1.08-.08Z"></path><path class="cls-4" d="M256,44.85a17.64,17.64,0,0,1-6.09-6.23l-.28.06A17.87,17.87,0,0,0,255.72,45Zm21.44-2.57-.08.08.28.1.06-.06Z"></path><path class="cls-4" d="M255.72,45a17.87,17.87,0,0,1-6.09-6.31l-.27.06a18.17,18.17,0,0,0,6.07,6.4Zm22-2.59-.06.06.29.1,0,0Z"></path><path class="cls-4" d="M255.43,45.14a18.17,18.17,0,0,1-6.07-6.4l-.28.07a18.4,18.4,0,0,0,6.08,6.47ZM278,42.52l0,0,.28.1v0Z"></path><path class="cls-4" d="M255.16,45.28a18.4,18.4,0,0,1-6.08-6.47l-.27.07a18.61,18.61,0,0,0,6.07,6.55Zm23.06-2.64v0l.19.06Z"></path><path class="cls-4" d="M254.88,45.43a18.61,18.61,0,0,1-6.07-6.55l-.28.07a19,19,0,0,0,6.08,6.63Z"></path><path class="cls-4" d="M254.61,45.58A19,19,0,0,1,248.53,39l-.27.07a19.18,19.18,0,0,0,6.08,6.7Z"></path><path class="cls-4" d="M254.34,45.72a19.18,19.18,0,0,1-6.08-6.7l-.27.07a19.43,19.43,0,0,0,6.08,6.78Z"></path><path class="cls-4" d="M254.07,45.87A19.43,19.43,0,0,1,248,39.09l-.26.08A19.59,19.59,0,0,0,253.8,46Z"></path><path class="cls-4" d="M253.8,46a19.59,19.59,0,0,1-6.07-6.84l-.27.08a19.93,19.93,0,0,0,6.08,6.91Z"></path><path class="cls-4" d="M253.54,46.16a19.93,19.93,0,0,1-6.08-6.91l-.27.08a20.27,20.27,0,0,0,6.09,7Z"></path><path class="cls-4" d="M253.28,46.31a20.27,20.27,0,0,1-6.09-7l-.26.08a20.44,20.44,0,0,0,6.08,7Z"></path><path class="cls-4" d="M253,46.45a20.44,20.44,0,0,1-6.08-7l-.27.09a20.87,20.87,0,0,0,6.09,7.1Z"></path><path class="cls-4" d="M252.75,46.6a20.87,20.87,0,0,1-6.09-7.1l-.26.08a21,21,0,0,0,6.09,7.16Z"></path><path class="cls-4" d="M252.49,46.74a21,21,0,0,1-6.09-7.16l-.26.09a21.38,21.38,0,0,0,6.09,7.22Z"></path><path class="cls-4" d="M252.23,46.89a21.38,21.38,0,0,1-6.09-7.22l-.26.09A21.45,21.45,0,0,0,252,47Z"></path><path class="cls-4" d="M252,47a21.45,21.45,0,0,1-6.09-7.27l-.26.1a21.94,21.94,0,0,0,6.09,7.32Z"></path><path class="cls-4" d="M251.71,47.18a21.94,21.94,0,0,1-6.09-7.32l-.26.09a22.06,22.06,0,0,0,6.1,7.38Z"></path><path class="cls-4" d="M251.46,47.33a22.06,22.06,0,0,1-6.1-7.38l-.25.1a22.37,22.37,0,0,0,6.09,7.42Z"></path><path class="cls-4" d="M251.2,47.47a22.37,22.37,0,0,1-6.09-7.42l-.26.1a22.58,22.58,0,0,0,6.1,7.47Z"></path><path class="cls-4" d="M251,47.62a22.58,22.58,0,0,1-6.1-7.47l-.25.1a22.93,22.93,0,0,0,6.09,7.51Z"></path><path class="cls-4" d="M250.69,47.76a22.93,22.93,0,0,1-6.09-7.51l-.26.1a23.38,23.38,0,0,0,6.1,7.56Z"></path><path class="cls-4" d="M250.44,47.91a23.38,23.38,0,0,1-6.1-7.56l-.25.11a23.46,23.46,0,0,0,6.09,7.59Z"></path><path class="cls-4" d="M250.18,48.05a23.46,23.46,0,0,1-6.09-7.59l-.25.1a23.72,23.72,0,0,0,6.09,7.63Z"></path><path class="cls-4" d="M249.93,48.19a23.72,23.72,0,0,1-6.09-7.63l-.25.11a24,24,0,0,0,6.09,7.67Z"></path><path class="cls-4" d="M249.68,48.34a24,24,0,0,1-6.09-7.67l-.25.11a24.2,24.2,0,0,0,6.08,7.7Z"></path><path class="cls-4" d="M249.42,48.48a24.2,24.2,0,0,1-6.08-7.7l-.25.12a24.39,24.39,0,0,0,6.08,7.72Z"></path><path class="cls-4" d="M249.17,48.62a24.39,24.39,0,0,1-6.08-7.72l-.25.11a24.8,24.8,0,0,0,6.08,7.76Z"></path><path class="cls-4" d="M248.92,48.77A24.8,24.8,0,0,1,242.84,41l-.24.12a25.08,25.08,0,0,0,6.06,7.78Z"></path><path class="cls-4" d="M248.66,48.91a25.08,25.08,0,0,1-6.06-7.78l-.25.11a25.36,25.36,0,0,0,6.06,7.81Z"></path><path class="cls-4" d="M248.41,49.05a25.36,25.36,0,0,1-6.06-7.81l-.24.12a25.26,25.26,0,0,0,6,7.83Z"></path><path class="cls-4" d="M248.16,49.19a25.26,25.26,0,0,1-6-7.83l-.25.13a25.84,25.84,0,0,0,6,7.84Z"></path><path class="cls-4" d="M247.91,49.33a25.84,25.84,0,0,1-6-7.84l-.24.12a26,26,0,0,0,6,7.86Z"></path><path class="cls-4" d="M247.66,49.47a26,26,0,0,1-6-7.86l-.24.13a26.28,26.28,0,0,0,6,7.87Z"></path><path class="cls-4" d="M247.4,49.61a26.28,26.28,0,0,1-6-7.87l-.25.12a26.7,26.7,0,0,0,6,7.89Z"></path><path class="cls-4" d="M247.15,49.75a26.7,26.7,0,0,1-6-7.89l-.24.13a27,27,0,0,0,6,7.9Z"></path><path class="cls-4" d="M246.9,49.89a27,27,0,0,1-6-7.9l-.24.13a27.15,27.15,0,0,0,6,7.91Z"></path><path class="cls-4" d="M246.65,50a27.15,27.15,0,0,1-6-7.91l-.23.14a27.5,27.5,0,0,0,6,7.91Z"></path><path class="cls-4" d="M246.39,50.17a27.5,27.5,0,0,1-6-7.91l-.24.13a27.65,27.65,0,0,0,6,7.92Z"></path><path class="cls-4" d="M246.14,50.31a27.65,27.65,0,0,1-6-7.92l-.24.14a28.08,28.08,0,0,0,5.95,7.91Z"></path><path class="cls-4" d="M245.89,50.44a28.08,28.08,0,0,1-5.95-7.91l-.24.13a28.44,28.44,0,0,0,5.93,7.92Z"></path><path class="cls-4" d="M245.63,50.58a28.44,28.44,0,0,1-5.93-7.92l-.23.14a28.67,28.67,0,0,0,5.91,7.92Z"></path><path class="cls-4" d="M245.38,50.72a28.47,28.47,0,0,1-5.91-7.92l-.23.14a28.56,28.56,0,0,0,5.89,7.91Z"></path><path class="cls-4" d="M245.13,50.85a28.56,28.56,0,0,1-5.89-7.91l-.24.14a29.2,29.2,0,0,0,5.87,7.9Z"></path><path class="cls-4" d="M244.87,51a29.2,29.2,0,0,1-5.87-7.9l-.23.15a29.39,29.39,0,0,0,5.85,7.89Z"></path><path class="cls-4" d="M244.62,51.12a29.39,29.39,0,0,1-5.85-7.89l-.23.15a29.78,29.78,0,0,0,5.82,7.87Z"></path><path class="cls-4" d="M244.36,51.25a29.78,29.78,0,0,1-5.82-7.87l-.23.14a29.82,29.82,0,0,0,5.8,7.86Z"></path><path class="cls-4" d="M244.11,51.38a30,30,0,0,1-5.8-7.86l-.23.15a29.84,29.84,0,0,0,5.77,7.84Z"></path><path class="cls-4" d="M243.85,51.51a29.84,29.84,0,0,1-5.77-7.84l-.23.15a30.06,30.06,0,0,0,5.75,7.82Z"></path><path class="cls-4" d="M243.6,51.64a30.06,30.06,0,0,1-5.75-7.82l-.23.16a30.61,30.61,0,0,0,5.72,7.79Z"></path><path class="cls-4" d="M243.34,51.77A30.61,30.61,0,0,1,237.62,44l-.23.15a31.06,31.06,0,0,0,5.69,7.77Z"></path><path class="cls-4" d="M243.08,51.9a31.06,31.06,0,0,1-5.69-7.77l-.23.16A31.44,31.44,0,0,0,242.83,52Z"></path><path class="cls-4" d="M242.83,52a31.44,31.44,0,0,1-5.67-7.74l-.22.15a31.44,31.44,0,0,0,5.63,7.72Z"></path><path class="cls-4" d="M242.57,52.16a31.44,31.44,0,0,1-5.63-7.72l-.23.16a31.83,31.83,0,0,0,5.6,7.68Z"></path><path class="cls-4" d="M242.31,52.28a31.83,31.83,0,0,1-5.6-7.68l-.22.16a31.9,31.9,0,0,0,5.56,7.65Z"></path><path class="cls-4" d="M242.05,52.41a31.9,31.9,0,0,1-5.56-7.65l-.23.16a32.32,32.32,0,0,0,5.53,7.61Z"></path><path class="cls-4" d="M241.79,52.53a32.32,32.32,0,0,1-5.53-7.61l-.22.17a32.72,32.72,0,0,0,5.49,7.57Z"></path><path class="cls-4" d="M241.53,52.66A32.72,32.72,0,0,1,236,45.09l-.22.16a33.06,33.06,0,0,0,5.45,7.53Z"></path><path class="cls-4" d="M241.27,52.78a33.06,33.06,0,0,1-5.45-7.53l-.22.17A33.13,33.13,0,0,0,241,52.9Z"></path><path class="cls-4" d="M241,52.9a33.13,33.13,0,0,1-5.41-7.48l-.22.16A33.36,33.36,0,0,0,240.75,53Z"></path><path class="cls-4" d="M240.75,53a33.36,33.36,0,0,1-5.37-7.44l-.22.17a33.68,33.68,0,0,0,5.33,7.39Z"></path><path class="cls-4" d="M240.49,53.14a33.68,33.68,0,0,1-5.33-7.39l-.22.17a34.41,34.41,0,0,0,5.28,7.34Z"></path><path class="cls-4" d="M240.22,53.26a34.41,34.41,0,0,1-5.28-7.34l-.21.18A34.33,34.33,0,0,0,240,53.38Z"></path><path class="cls-4" d="M240,53.38a34.33,34.33,0,0,1-5.23-7.28l-.22.17a34.45,34.45,0,0,0,5.18,7.22Z"></path><path class="cls-4" d="M239.69,53.49a34.45,34.45,0,0,1-5.18-7.22l-.22.18a34.78,34.78,0,0,0,5.14,7.16Z"></path><path class="cls-4" d="M239.43,53.61a34.78,34.78,0,0,1-5.14-7.16l-.21.17a34.88,34.88,0,0,0,5.08,7.1Z"></path><path class="cls-4" d="M239.16,53.72a34.88,34.88,0,0,1-5.08-7.1l-.21.18a35.21,35.21,0,0,0,5,7Z"></path><path class="cls-4" d="M238.9,53.84a35.21,35.21,0,0,1-5-7l-.22.18a35.61,35.61,0,0,0,5,7Z"></path><path class="cls-4" d="M238.63,54a35.61,35.61,0,0,1-5-7l-.21.18a36.32,36.32,0,0,0,4.92,6.9Z"></path><path class="cls-4" d="M238.36,54.06a36.32,36.32,0,0,1-4.92-6.9l-.21.18a36.3,36.3,0,0,0,4.86,6.83Z"></path><path class="cls-4" d="M238.09,54.17a36.3,36.3,0,0,1-4.86-6.83l-.21.19a35.81,35.81,0,0,0,4.81,6.75Z"></path><path class="cls-4" d="M237.83,54.28A35.81,35.81,0,0,1,233,47.53l-.21.18a36.19,36.19,0,0,0,4.75,6.67Z"></path><path class="cls-4" d="M237.56,54.38a36.19,36.19,0,0,1-4.75-6.67l-.21.19a37.43,37.43,0,0,0,4.68,6.59Z"></path><path class="cls-4" d="M237.28,54.49a37.43,37.43,0,0,1-4.68-6.59l-.21.18A37.11,37.11,0,0,0,237,54.6Z"></path><path class="cls-4" d="M237,54.6a37.11,37.11,0,0,1-4.62-6.52l-.2.19a37.33,37.33,0,0,0,4.55,6.43Z"></path><path class="cls-4" d="M236.74,54.7a37.33,37.33,0,0,1-4.55-6.43l-.21.19a37.81,37.81,0,0,0,4.49,6.34Z"></path><path class="cls-4" d="M236.47,54.8A37.81,37.81,0,0,1,232,48.46l-.2.19a37.12,37.12,0,0,0,4.42,6.25Z"></path><path class="cls-4" d="M236.2,54.9a37.12,37.12,0,0,1-4.42-6.25l-.21.2A38.12,38.12,0,0,0,235.92,55Z"></path><path class="cls-4" d="M235.92,55a38.12,38.12,0,0,1-4.35-6.15l-.2.19a38.5,38.5,0,0,0,4.28,6.06Z"></path><path class="cls-4" d="M235.65,55.1A38.5,38.5,0,0,1,231.37,49l-.2.2a38.78,38.78,0,0,0,4.2,6Z"></path><path class="cls-4" d="M235.37,55.2a38.78,38.78,0,0,1-4.2-6l-.21.19a38.44,38.44,0,0,0,4.14,5.86Z"></path><path class="cls-4" d="M235.1,55.29A38.44,38.44,0,0,1,231,49.43l-.2.2a38.78,38.78,0,0,0,4.06,5.76Z"></path><path class="cls-4" d="M234.82,55.39a38.78,38.78,0,0,1-4.06-5.76l-.2.2a39.9,39.9,0,0,0,4,5.65Z"></path><path class="cls-4" d="M234.54,55.48a39.9,39.9,0,0,1-4-5.65l-.2.2a40,40,0,0,0,3.9,5.54Z"></path><path class="cls-4" d="M234.26,55.57a40,40,0,0,1-3.9-5.54l-.2.2A41.49,41.49,0,0,0,234,55.67Z"></path><path class="cls-4" d="M234,55.67a41.49,41.49,0,0,1-3.82-5.44l-.19.2a39.64,39.64,0,0,0,3.73,5.32l.28-.08"></path><path class="cls-4" d="M233.7,55.75A39.64,39.64,0,0,1,230,50.43l-.2.21a41.12,41.12,0,0,0,3.65,5.2Z"></path><path class="cls-4" d="M233.42,55.84a41.12,41.12,0,0,1-3.65-5.2l-.19.2a41,41,0,0,0,3.56,5.09Z"></path><path class="cls-4" d="M233.14,55.93a41,41,0,0,1-3.56-5.09l-.2.21a40.87,40.87,0,0,0,3.48,5Z"></path><path class="cls-4" d="M232.86,56a40.87,40.87,0,0,1-3.48-5l-.19.21a42.76,42.76,0,0,0,3.38,4.84Z"></path><path class="cls-4" d="M232.57,56.1a42.76,42.76,0,0,1-3.38-4.84l-.19.21a41.76,41.76,0,0,0,3.29,4.71Z"></path><path class="cls-4" d="M232.29,56.18A41.76,41.76,0,0,1,229,51.47l-.2.21a43.1,43.1,0,0,0,3.2,4.58l.29-.08"></path><path class="cls-4" d="M232,56.26a43.1,43.1,0,0,1-3.2-4.58l-.19.21a43.18,43.18,0,0,0,3.11,4.45Z"></path><path class="cls-4" d="M231.72,56.34a43.18,43.18,0,0,1-3.11-4.45l-.19.21a42.14,42.14,0,0,0,3,4.32Z"></path><path class="cls-4" d="M231.43,56.42a43.26,43.26,0,0,1-3-4.32l-.19.22a45,45,0,0,0,2.91,4.17Z"></path><path class="cls-4" d="M231.14,56.49a45,45,0,0,1-2.91-4.17l-.18.21a43.45,43.45,0,0,0,2.81,4l.28-.08"></path><path class="cls-4" d="M230.86,56.57a43.45,43.45,0,0,1-2.81-4l-.19.22a42.18,42.18,0,0,0,2.71,3.89l.29-.07"></path><path class="cls-4" d="M230.57,56.64a42.18,42.18,0,0,1-2.71-3.89l-.19.22q1.22,1.94,2.61,3.74Z"></path><path class="cls-4" d="M230.28,56.71q-1.4-1.8-2.61-3.74l-.18.21a41.18,41.18,0,0,0,2.5,3.6Z"></path><path class="cls-4" d="M230,56.78a41.18,41.18,0,0,1-2.5-3.6l-.18.22c.74,1.19,1.54,2.34,2.39,3.45Z"></path><path class="cls-4" d="M229.7,56.85c-.85-1.11-1.65-2.26-2.39-3.45l-.19.23c.72,1.13,1.48,2.23,2.28,3.29l.3-.07"></path><path class="cls-4" d="M229.4,56.92c-.8-1.06-1.56-2.16-2.28-3.29l-.18.22c.68,1.08,1.4,2.12,2.17,3.13Z"></path><path class="cls-4" d="M229.11,57c-.77-1-1.49-2-2.17-3.13l-.18.22c.65,1,1.33,2,2.06,3Z"></path><path class="cls-4" d="M228.82,57.05c-.73-1-1.41-2-2.06-3l-.18.23c.61,1,1.26,1.9,1.95,2.81Z"></path><path class="cls-4" d="M228.53,57.11c-.69-.91-1.34-1.85-1.95-2.81l-.18.22c.58.91,1.19,1.79,1.83,2.65l.3-.06"></path><path class="cls-4" d="M228.23,57.17c-.64-.86-1.25-1.74-1.83-2.65l-.18.23c.55.85,1.12,1.68,1.72,2.48Z"></path><path class="cls-4" d="M227.94,57.23c-.6-.8-1.17-1.63-1.72-2.48L226,55c.51.79,1.05,1.56,1.6,2.31Z"></path><path class="cls-4" d="M227.64,57.29c-.55-.75-1.09-1.52-1.6-2.31l-.17.23c.47.73,1,1.44,1.47,2.14Z"></path><path class="cls-4" d="M227.34,57.35c-.51-.7-1-1.41-1.47-2.14l-.18.23c.44.67.89,1.32,1.36,2Z"></path><path class="cls-4" d="M227.05,57.4c-.47-.64-.92-1.29-1.36-2l-.17.24c.4.6.8,1.19,1.23,1.78Z"></path><path class="cls-4" d="M226.75,57.46c-.43-.59-.83-1.18-1.23-1.78l-.17.23c.36.54.72,1.07,1.1,1.6Z"></path><path class="cls-4" d="M226.45,57.51c-.38-.53-.74-1.06-1.1-1.6l-.17.24c.31.47.64.94,1,1.41l.3-.05"></path><path class="cls-4" d="M226.15,57.56c-.33-.47-.66-.94-1-1.41l-.17.23c.27.42.55.82.84,1.23Z"></path><path class="cls-4" d="M225.85,57.61c-.29-.41-.57-.81-.84-1.23l-.17.24c.23.35.47.69.71,1Z"></path><path class="cls-4" d="M225.55,57.65c-.24-.34-.48-.68-.71-1l-.17.24.58.84.3-.05"></path><path class="cls-4" d="M225.25,57.7l-.58-.84-.16.25.44.63.3,0"></path><path class="cls-4" d="M225,57.74l-.44-.63-.17.24.3.43Z"></path><path class="cls-4" d="M224.64,57.78l-.3-.43-.16.25.16.23Z"></path><path class="cls-4" d="M224.34,57.83l-.16-.23-.16.25v0Z"></path><path class="cls-4" d="M224,57.87v0h0v0Z"></path><path class="cls-5" d="M283.08,138.31h0L278.33,152h9.55Zm11.84,22.47a3.28,3.28,0,0,1,.18.75.54.54,0,0,1-.16.43,1.09,1.09,0,0,1-.57.19,9.84,9.84,0,0,1-1.05,0c-.43,0-.79,0-1.05,0a3,3,0,0,1-.6-.11.66.66,0,0,1-.29-.21,1.27,1.27,0,0,1-.18-.31l-2.36-6.67H277.41l-2.25,6.58a1.28,1.28,0,0,1-.17.33.68.68,0,0,1-.31.23,1.75,1.75,0,0,1-.57.14,8.58,8.58,0,0,1-1,0,7.12,7.12,0,0,1-1-.05,1,1,0,0,1-.55-.2.52.52,0,0,1-.15-.43,2.74,2.74,0,0,1,.18-.75l9.22-25.46a1.23,1.23,0,0,1,.22-.38.9.9,0,0,1,.41-.23,2.69,2.69,0,0,1,.68-.12c.28,0,.62,0,1.05,0s.83,0,1.12,0a3,3,0,0,1,.72.12.9.9,0,0,1,.66.63Zm-37.71-.24a1.71,1.71,0,0,1-.14.72,1.54,1.54,0,0,1-.37.49,1.44,1.44,0,0,1-.52.27,1.88,1.88,0,0,1-.57.09H254.4a3.75,3.75,0,0,1-1-.12,2.25,2.25,0,0,1-.81-.42,3.84,3.84,0,0,1-.77-.82,11.86,11.86,0,0,1-.82-1.35l-8.4-15.59c-.44-.8-.88-1.64-1.32-2.53s-.87-1.74-1.25-2.57h0c0,1,0,2,.06,3.12s0,2.11,0,3.15v16.53a.57.57,0,0,1-.08.29.66.66,0,0,1-.31.21,2.74,2.74,0,0,1-.56.13,5.49,5.49,0,0,1-.88.05,5.55,5.55,0,0,1-.89-.05,2.34,2.34,0,0,1-.55-.13.55.55,0,0,1-.29-.21.5.5,0,0,1-.09-.29V136.23a1.4,1.4,0,0,1,.48-1.2,1.72,1.72,0,0,1,1.06-.36h1.79a4.54,4.54,0,0,1,1.06.1,2.17,2.17,0,0,1,.77.35,2.86,2.86,0,0,1,.66.68,10.23,10.23,0,0,1,.67,1.09l6.45,12c.4.74.78,1.46,1.15,2.16s.74,1.39,1.08,2.06l1,2c.34.65.67,1.32,1,2h0c0-1.12-.05-2.27-.06-3.48V135.3a.44.44,0,0,1,.09-.27.74.74,0,0,1,.3-.23,2.21,2.21,0,0,1,.56-.13,7.15,7.15,0,0,1,.91,0,6.82,6.82,0,0,1,.85,0,2,2,0,0,1,.56.13.82.82,0,0,1,.3.23.5.5,0,0,1,.08.27Zm-37.93,1a.49.49,0,0,1-.09.3.53.53,0,0,1-.3.2,2.59,2.59,0,0,1-.56.13,7.68,7.68,0,0,1-1.75,0A2.56,2.56,0,0,1,216,162a.53.53,0,0,1-.3-.2.49.49,0,0,1-.09-.3v-26.3a.43.43,0,0,1,.1-.29.6.6,0,0,1,.31-.2,3.16,3.16,0,0,1,.58-.13,5.12,5.12,0,0,1,.84-.05,5.49,5.49,0,0,1,.88.05,2.59,2.59,0,0,1,.56.13.53.53,0,0,1,.3.2.48.48,0,0,1,.09.29ZM201,158.2a5.34,5.34,0,0,1,0,.6,1.93,1.93,0,0,1-.07.44,1.73,1.73,0,0,1-.14.34,2.27,2.27,0,0,1-.29.35,6.3,6.3,0,0,1-.9.65,11,11,0,0,1-1.69.85,15.11,15.11,0,0,1-2.31.69,12.92,12.92,0,0,1-2.87.29,12.6,12.6,0,0,1-4.83-.89,9.69,9.69,0,0,1-3.68-2.63,11.77,11.77,0,0,1-2.34-4.28,21.5,21.5,0,0,1,.06-12,13.2,13.2,0,0,1,2.48-4.52,10.74,10.74,0,0,1,3.82-2.83,12.15,12.15,0,0,1,4.93-1,11.85,11.85,0,0,1,2.32.22,16.11,16.11,0,0,1,2.08.55,10.45,10.45,0,0,1,1.71.78,5.61,5.61,0,0,1,1,.73,2.39,2.39,0,0,1,.38.43,1.34,1.34,0,0,1,.13.34,2.94,2.94,0,0,1,.09.48,6.38,6.38,0,0,1,0,.66,4.67,4.67,0,0,1-.05.72,1.65,1.65,0,0,1-.13.51.65.65,0,0,1-.2.29.39.39,0,0,1-.28.1,1.65,1.65,0,0,1-.84-.41,13.23,13.23,0,0,0-1.38-.91,11.29,11.29,0,0,0-2.05-.92,9.22,9.22,0,0,0-2.9-.41,7.66,7.66,0,0,0-3.35.73,7,7,0,0,0-2.58,2.16,10.51,10.51,0,0,0-1.66,3.46,16.73,16.73,0,0,0-.59,4.68,17,17,0,0,0,.57,4.62,9.6,9.6,0,0,0,1.62,3.35,7,7,0,0,0,2.59,2,8.62,8.62,0,0,0,3.49.68,9.23,9.23,0,0,0,2.88-.4,11.19,11.19,0,0,0,2.09-.9c.58-.33,1.05-.63,1.42-.89a1.77,1.77,0,0,1,.88-.41.46.46,0,0,1,.26.07.41.41,0,0,1,.16.24,2.12,2.12,0,0,1,.11.49C201,157.61,201,157.88,201,158.2Zm-44.62-19.89h0L151.58,152h9.56Zm11.84,22.47a3.28,3.28,0,0,1,.18.75.54.54,0,0,1-.16.43,1.09,1.09,0,0,1-.57.19,9.84,9.84,0,0,1-1,0c-.43,0-.79,0-1.05,0a3,3,0,0,1-.6-.11.66.66,0,0,1-.29-.21,1,1,0,0,1-.18-.31l-2.36-6.67H150.67l-2.25,6.58a1.28,1.28,0,0,1-.17.33.68.68,0,0,1-.31.23,1.75,1.75,0,0,1-.57.14,8.58,8.58,0,0,1-1,0,7.12,7.12,0,0,1-1-.05,1,1,0,0,1-.55-.2.52.52,0,0,1-.15-.43,2.74,2.74,0,0,1,.18-.75l9.22-25.46a1.23,1.23,0,0,1,.22-.38.9.9,0,0,1,.41-.23,2.69,2.69,0,0,1,.68-.12c.27,0,.62,0,1,0s.83,0,1.12,0a3,3,0,0,1,.72.12.9.9,0,0,1,.66.63Zm-44,.65a1,1,0,0,1-.24.38.94.94,0,0,1-.42.23,3.16,3.16,0,0,1-.68.13c-.27,0-.62,0-1,0H121a4.65,4.65,0,0,1-.61-.06l-.44-.09a1.4,1.4,0,0,1-.3-.14.57.57,0,0,1-.2-.21.92.92,0,0,1-.14-.28l-9-25.46a2.74,2.74,0,0,1-.18-.75.5.5,0,0,1,.18-.43,1.22,1.22,0,0,1,.61-.19c.29,0,.67,0,1.16,0a8.27,8.27,0,0,1,.94,0,1.67,1.67,0,0,1,.54.12.73.73,0,0,1,.29.21,2.4,2.4,0,0,1,.18.36l7.88,23.06h0l7.67-23a1.25,1.25,0,0,1,.15-.38.52.52,0,0,1,.3-.23,2,2,0,0,1,.59-.12,9.68,9.68,0,0,1,1,0,7.24,7.24,0,0,1,1,.05.84.84,0,0,1,.52.2.53.53,0,0,1,.11.43,3.38,3.38,0,0,1-.2.75Z"></path><path class="cls-5" d="M324.13,154.38a8,8,0,0,1-.71,3.42,7.51,7.51,0,0,1-2,2.55,8.85,8.85,0,0,1-3,1.58,12.45,12.45,0,0,1-3.68.52,13.34,13.34,0,0,1-4.67-.81,10.11,10.11,0,0,1-1.56-.7,3.86,3.86,0,0,1-.87-.62,1.53,1.53,0,0,1-.36-.64,3.71,3.71,0,0,1-.11-1,5.5,5.5,0,0,1,0-.77,2.29,2.29,0,0,1,.12-.5.53.53,0,0,1,.22-.26.58.58,0,0,1,.3-.07,1.81,1.81,0,0,1,.84.36,15.15,15.15,0,0,0,1.39.78,14.55,14.55,0,0,0,2.05.78,9.34,9.34,0,0,0,2.77.37,7.19,7.19,0,0,0,2.19-.32,4.87,4.87,0,0,0,1.69-.89,3.84,3.84,0,0,0,1.1-1.42,4.75,4.75,0,0,0,.38-1.93,3.53,3.53,0,0,0-.53-2,5.37,5.37,0,0,0-1.4-1.46,13.33,13.33,0,0,0-2-1.14l-2.28-1.05a23.37,23.37,0,0,1-2.27-1.2,9.38,9.38,0,0,1-2-1.54,6.91,6.91,0,0,1-1.4-2.09,6.73,6.73,0,0,1-.55-2.86,7.09,7.09,0,0,1,.63-3.06,6.43,6.43,0,0,1,1.74-2.25,7.78,7.78,0,0,1,2.65-1.39,11.43,11.43,0,0,1,3.32-.48,10.3,10.3,0,0,1,1.83.17,11.07,11.07,0,0,1,1.74.42,10.07,10.07,0,0,1,1.46.59,4.29,4.29,0,0,1,.84.53,1.71,1.71,0,0,1,.26.32,1,1,0,0,1,.11.3,3.62,3.62,0,0,1,.06.44c0,.16,0,.38,0,.65a6.8,6.8,0,0,1,0,.68,2.1,2.1,0,0,1-.1.5.62.62,0,0,1-.17.3.44.44,0,0,1-.27.09,1.67,1.67,0,0,1-.73-.3c-.34-.2-.74-.41-1.23-.67a10.9,10.9,0,0,0-1.71-.67,7.22,7.22,0,0,0-2.22-.31,6,6,0,0,0-2,.3,4.19,4.19,0,0,0-1.41.82,3.45,3.45,0,0,0-.83,1.2,4.09,4.09,0,0,0-.27,1.48,3.52,3.52,0,0,0,.53,2,5.56,5.56,0,0,0,1.41,1.46,12.9,12.9,0,0,0,2,1.16l2.3,1.07c.77.36,1.54.75,2.29,1.18a9.53,9.53,0,0,1,2,1.53,7,7,0,0,1,1.43,2.07,6.84,6.84,0,0,1,.54,2.83"></path></svg>